<svg width="30" height="30" fill="none" xmlns="http://www.w3.org/2000/svg"><g clip-path="url(#clip0_66417_687)"><path fill-rule="evenodd" clip-rule="evenodd" d="M21.769 17.978c-.373-.187-2.199-1.084-2.539-1.21-.34-.123-.588-.184-.836.188-.248.37-.959 1.208-1.175 1.455-.218.25-.434.28-.805.094-.372-.187-1.569-.579-2.988-1.844-1.104-.985-1.85-2.2-2.066-2.573-.216-.372-.024-.573.163-.758.167-.166.37-.434.557-.65.186-.217.248-.372.371-.621.125-.248.063-.464-.031-.65-.092-.186-.835-2.015-1.145-2.759-.301-.724-.607-.625-.835-.637A16.07 16.07 0 009.727 8c-.247 0-.65.093-.99.465-.34.371-1.3 1.27-1.3 3.099 0 1.827 1.33 3.594 1.517 3.842.186.248 2.618 4 6.345 5.61.887.382 1.579.61 2.117.78.89.284 1.7.244 2.34.148.713-.106 2.198-.899 2.508-1.766.309-.868.309-1.612.216-1.767-.093-.155-.34-.247-.713-.433h.002zM14.99 27.23h-.005a12.34 12.34 0 01-6.29-1.722l-.45-.268-4.675 1.23 1.248-4.56-.293-.468a12.326 12.326 0 01-1.889-6.575C2.638 8.054 8.18 2.511 14.996 2.511c3.3 0 6.403 1.288 8.735 3.623a12.282 12.282 0 013.615 8.741c-.002 6.813-5.545 12.356-12.355 12.356zM25.505 4.36A14.77 14.77 0 0014.99 0C6.798 0 .127 6.668.125 14.864a14.83 14.83 0 001.984 7.431L0 30l7.88-2.067a14.851 14.851 0 007.105 1.81h.006c8.193 0 14.863-6.67 14.865-14.867a14.777 14.777 0 00-4.35-10.516z" fill="#fff"/></g><defs><clipPath id="clip0_66417_687"><path fill="#fff" d="M0 0h30v30H0z"/></clipPath></defs></svg>